<?xml version="1.0" encoding="UTF-8" standalone="no"?>
<!DOCTYPE svg PUBLIC "-//W3C//DTD SVG 1.1//EN" "http://www.w3.org/Graphics/SVG/1.1/DTD/svg11.dtd">
<svg width="100%" height="100%" viewBox="0 0 97 97" version="1.1" xmlns="http://www.w3.org/2000/svg" xmlns:xlink="http://www.w3.org/1999/xlink" xml:space="preserve" xmlns:serif="http://www.serif.com/" style="fill-rule:evenodd;clip-rule:evenodd;stroke-linecap:round;stroke-linejoin:round;stroke-miterlimit:1.5;">
    <g transform="matrix(1,0,0,1,-4334.7,-3103.08)">
        <g id="AsteroidOne" transform="matrix(0.060625,0,0,0.0312903,4146.76,3096.82)">
            <rect x="3100" y="200" width="1600" height="3100" style="fill:none;"/>
            <g transform="matrix(1.17701,0.372821,-0.0993156,1.17701,-507.708,-1865.76)">
                <g transform="matrix(16.7417,0,0,37.718,-68946.4,-59851.3)">
                    <path d="M4358.28,1607.53C4367.86,1611.61 4376.78,1615.17 4381.85,1619.13C4382.91,1619.96 4383.5,1621.13 4383.48,1622.36C4383.38,1627.64 4385.1,1629.37 4385.99,1631.14C4386.91,1632.95 4387.52,1634.76 4386.85,1637.71C4388.72,1640.5 4390.29,1643.23 4391.17,1645.77C4392.4,1649.33 4392.35,1652.61 4390.76,1655.44C4389.7,1657.33 4387.95,1659.07 4385.22,1660.52C4383.95,1661.35 4381.89,1662.18 4379.42,1662.76C4374.55,1663.88 4367.84,1664.47 4367.84,1664.47C4366.66,1664.58 4365.48,1664.31 4364.51,1663.73C4364.51,1663.73 4353.85,1657.34 4347.95,1653.19C4343.32,1652.03 4338.67,1652.4 4334.51,1652.45C4330.52,1652.51 4326.86,1652.3 4323.77,1651.24C4323.06,1651.01 4322.44,1650.63 4321.93,1650.15C4315.2,1643.81 4310.8,1635.44 4313.34,1627.13C4313.41,1626.92 4313.49,1626.7 4313.6,1626.5C4319.08,1615.81 4323.47,1610.81 4327.93,1608.44C4331.1,1606.75 4334.42,1606.17 4338.4,1606.19C4342.85,1606.21 4348.35,1607.09 4356.08,1607.09C4356.84,1607.09 4357.59,1607.24 4358.28,1607.53ZM4356.08,1611.35C4334.58,1611.35 4330.26,1604.57 4318.13,1628.22C4316.02,1635.13 4320,1642 4325.59,1647.28C4331.96,1649.45 4341.25,1646.72 4350.36,1649.38C4355.94,1653.4 4367.34,1660.23 4367.34,1660.23C4367.34,1660.23 4380.11,1659.12 4382.39,1657.01C4390.41,1652.93 4386.79,1645.85 4381.55,1638.37C4383.92,1631.65 4378.33,1632.85 4378.52,1622.29C4373.7,1618.53 4365.18,1615.23 4356.08,1611.35Z" style="fill:white;"/>
                </g>
                <g transform="matrix(16.7417,-1.77636e-15,0,37.718,-68946.4,-59851.3)">
                    <path d="M4356.08,1611.35C4365.18,1615.23 4373.7,1618.53 4378.52,1622.29C4378.33,1632.85 4383.92,1631.65 4381.55,1638.37C4386.79,1645.85 4390.41,1652.93 4382.39,1657.01C4380.11,1659.12 4367.34,1660.23 4367.34,1660.23C4367.34,1660.23 4355.94,1653.4 4350.36,1649.38C4341.25,1646.72 4331.96,1649.45 4325.59,1647.28C4320,1642 4316.02,1635.13 4318.13,1628.22C4330.26,1604.57 4334.58,1611.35 4356.08,1611.35Z" style="fill:rgb(179,90,22);stroke:rgb(75,36,9);stroke-width:3.05px;"/>
                </g>
                <g transform="matrix(9.52381,0,0,18.4524,-37630.5,-28446.8)">
                    <path d="M4350.96,1648.91C4350.96,1648.91 4351.59,1634.76 4360.7,1636.47C4369.81,1638.19 4370.12,1646.22 4367.5,1649.4C4364.89,1652.59 4363.99,1642.83 4360.7,1645.05C4357.41,1647.27 4356.25,1655.89 4350.96,1648.91Z" style="fill:rgb(75,36,9);"/>
                </g>
                <g transform="matrix(8.68447,-7.57434,3.90933,16.8262,-40320.8,6992.32)">
                    <path d="M4368.3,1624.11C4368.3,1624.11 4372.93,1616.17 4377.41,1622.67C4381.9,1629.18 4372.4,1631.43 4382.03,1636.47C4391.65,1641.52 4398.84,1648.9 4386.7,1649.43C4374.57,1649.96 4375.85,1640.47 4373.27,1636.47C4370.68,1632.47 4367.23,1633.02 4368.3,1624.11Z" style="fill:rgb(75,36,9);"/>
                </g>
                <g transform="matrix(9.52381,0,0,18.4524,-37710.7,-28385.5)">
                    <path d="M4334.32,1620.01C4334.32,1620.01 4346.39,1609.28 4350.71,1625.68C4350.71,1625.68 4356.08,1630.68 4348.09,1631.09C4340.09,1631.51 4345.98,1624.32 4341.65,1625.68C4336.11,1627.43 4330.95,1626.05 4334.32,1620.01Z" style="fill:rgb(75,36,9);"/>
                </g>
                <g transform="matrix(7.7,-10.8592,5.60472,14.9188,-38812.6,24415.7)">
                    <path d="M4340.84,1602.11C4340.84,1602.11 4337.68,1592.97 4344.47,1597.53C4351.25,1602.08 4349.67,1606.55 4355.31,1606.1C4360.96,1605.64 4359.22,1625.91 4354.44,1619.16C4349.66,1612.4 4352.97,1608.96 4348.61,1606.75C4344.26,1604.55 4341.41,1606.79 4340.84,1602.11Z" style="fill:rgb(75,36,9);"/>
                </g>
                <g transform="matrix(9.34851,-3.52406,1.81887,18.1127,-39631.7,-12297.6)">
                    <path d="M4371.2,1636.47C4371.2,1636.47 4381.22,1629.38 4383.48,1644.19C4385.73,1659 4395.82,1664.04 4383.48,1662.34C4371.13,1660.64 4382.36,1645.17 4377.26,1645.17C4372.16,1645.17 4366.76,1642 4371.2,1636.47Z" style="fill:rgb(75,36,9);"/>
                </g>
                <g transform="matrix(8.89439,-6.59686,3.40483,17.2329,-40524,2122.85)">
                    <path d="M4319.8,1646.04C4319.8,1646.04 4322.59,1658.35 4329.41,1656.87C4336.23,1655.39 4331.17,1652.15 4325.45,1646.55C4319.72,1640.95 4314.32,1639.82 4319.8,1646.04Z" style="fill:rgb(75,36,9);"/>
                </g>
                <g transform="matrix(9.52381,0,0,18.4524,-37611.2,-28623.8)">
                    <path d="M4377.03,1671.89C4377.03,1671.89 4391.57,1668.14 4390.07,1678.53C4388.57,1688.91 4380.78,1680.53 4379.48,1678.87C4378.17,1677.22 4366.66,1675.13 4377.03,1671.89Z" style="fill:rgb(75,36,9);"/>
                </g>
            </g>
        </g>
    </g>
</svg>
