<?xml version="1.0" encoding="UTF-8" standalone="no"?>
<!DOCTYPE svg PUBLIC "-//W3C//DTD SVG 1.1//EN" "http://www.w3.org/Graphics/SVG/1.1/DTD/svg11.dtd">
<svg width="100%" height="100%" viewBox="0 0 115 97" version="1.1" xmlns="http://www.w3.org/2000/svg" xmlns:xlink="http://www.w3.org/1999/xlink" xml:space="preserve" xmlns:serif="http://www.serif.com/" style="fill-rule:evenodd;clip-rule:evenodd;stroke-linecap:round;stroke-linejoin:round;stroke-miterlimit:1.5;">
    <g transform="matrix(1,0,0,1,-4448.26,-3103.08)">
        <g id="AsteroidTwo" transform="matrix(0.071875,0,0,0.0312903,4225.45,3096.82)">
            <rect x="3100" y="200" width="1600" height="3100" style="fill:none;"/>
            <g transform="matrix(1.18029,0,0,1.39566,-706.804,-950.793)">
                <g transform="matrix(9.52381,0,0,18.4524,-39812,-28446.8)">
                    <path d="M4601.38,1594.94L4601.42,1594.95C4610.69,1594.98 4616.72,1596.68 4621.13,1599.17C4625.89,1601.87 4628.95,1605.55 4631.74,1609.94C4635.48,1615.83 4638.66,1623.48 4650.53,1629.92C4652.1,1630.78 4653.31,1632.17 4653.94,1633.84C4660.23,1650.55 4654.35,1671.38 4654.35,1671.38C4653.99,1672.61 4653.32,1673.73 4652.41,1674.62C4652.41,1674.62 4639.36,1686.91 4626.62,1687.09C4623.54,1687.14 4620.02,1688.79 4616.82,1690.52C4611.03,1693.63 4606.3,1697.49 4606.3,1697.49C4604.98,1698.57 4603.32,1699.16 4601.61,1699.16L4580.61,1699.16C4578.36,1699.16 4576.23,1698.13 4574.82,1696.38C4574.82,1696.38 4556.07,1672.97 4556.07,1672.97C4549.72,1672.1 4535.53,1669.88 4529.51,1666.46C4528.26,1665.76 4527.24,1664.98 4526.43,1664.21L4524.45,1661.64L4523.35,1658.44L4523.53,1654.77C4529.05,1632.62 4537.18,1608.78 4537.18,1608.78C4538.03,1606.3 4540.11,1604.45 4542.66,1603.91C4542.66,1603.91 4588.53,1594.28 4601.38,1594.94ZM4601.17,1602.39C4589.15,1601.59 4544.21,1611.19 4544.21,1611.19C4544.21,1611.19 4536.18,1634.72 4530.73,1656.58C4529.15,1662.9 4559.98,1665.96 4559.98,1665.96L4580.61,1691.71L4601.61,1691.71C4601.61,1691.71 4616.22,1679.8 4626.51,1679.65C4636.81,1679.5 4647.21,1669.3 4647.21,1669.3C4647.21,1669.3 4652.49,1651.09 4646.99,1636.47C4620.04,1621.83 4631.85,1602.39 4601.17,1602.39Z" style="fill:white;"/>
                </g>
                <g transform="matrix(9.52381,0,0,18.4524,-39812,-28446.8)">
                    <path d="M4601.17,1602.39C4631.85,1602.39 4620.04,1621.83 4646.99,1636.47C4652.49,1651.09 4647.21,1669.3 4647.21,1669.3C4647.21,1669.3 4636.81,1679.5 4626.51,1679.65C4616.22,1679.8 4601.61,1691.71 4601.61,1691.71L4580.61,1691.71L4559.98,1665.96C4559.98,1665.96 4529.15,1662.9 4530.73,1656.58C4536.18,1634.72 4544.21,1611.19 4544.21,1611.19C4544.21,1611.19 4589.15,1601.59 4601.17,1602.39Z" style="fill:rgb(179,90,22);stroke:rgb(75,36,9);stroke-width:4.96px;"/>
                </g>
                <g transform="matrix(9.52381,0,0,18.4524,-39865.4,-28518.9)">
                    <path d="M4590.08,1636.47C4591.71,1628.66 4607.36,1624.56 4608,1633.37C4608.64,1642.18 4608.24,1651.76 4603.57,1647.03C4598.9,1642.29 4602.53,1641.92 4595.87,1640.83C4589.2,1639.75 4588.93,1642 4590.08,1636.47Z" style="fill:rgb(75,36,9);"/>
                </g>
                <g transform="matrix(9.52381,0,0,18.4524,-39812,-28446.8)">
                    <path d="M4624.18,1669.6C4624.18,1669.6 4633.69,1667.37 4637.22,1660.23C4640.75,1653.08 4646.51,1651.69 4642.45,1648.28C4638.39,1644.88 4639.26,1655.71 4635.54,1655.02C4631.81,1654.33 4624.76,1657.64 4623.49,1661.02C4622.21,1664.4 4620.86,1669.8 4624.18,1669.6Z" style="fill:rgb(75,36,9);"/>
                </g>
                <g transform="matrix(9.52381,0,0,18.4524,-39855.3,-28547.9)">
                    <path d="M4587.66,1656.36C4591.45,1655.92 4596.18,1659.45 4594.15,1664.54C4592.11,1669.62 4590.97,1670.77 4587.3,1667.17C4583.62,1663.57 4591.28,1663.27 4587.62,1660.87C4583.95,1658.48 4581.62,1657.04 4587.66,1656.36Z" style="fill:rgb(75,36,9);"/>
                </g>
                <g transform="matrix(9.52381,0,0,18.4524,-39812,-28446.8)">
                    <path d="M4595.27,1602.34C4595.27,1602.34 4590.77,1613.66 4600.39,1612.51C4610.02,1611.36 4601.83,1607.29 4613.37,1605.98C4624.9,1604.67 4603.96,1598.98 4595.27,1602.34Z" style="fill:rgb(75,36,9);"/>
                </g>
                <g transform="matrix(9.52381,0,0,18.4524,-39812,-28446.8)">
                    <path d="M4551.24,1620.48C4551.24,1620.48 4557.27,1616.77 4560.83,1617.01C4564.4,1617.24 4567.03,1621.91 4562.94,1622.35C4558.84,1622.78 4553.81,1620.97 4553.34,1624.81C4552.87,1628.64 4554.22,1637.87 4551.85,1636.47C4549.47,1635.07 4544.31,1625.58 4551.24,1620.48Z" style="fill:rgb(75,36,9);"/>
                </g>
                <g transform="matrix(9.52381,0,0,18.4524,-39818.1,-28525.4)">
                    <path d="M4550.85,1650.94C4554.17,1653.52 4558.53,1654.38 4559.72,1656.32C4560.92,1658.26 4562.47,1660.58 4556.39,1660.58C4550.31,1660.58 4542.56,1658.73 4543.83,1654.12C4545.1,1649.51 4547.62,1648.43 4550.85,1650.94Z" style="fill:rgb(75,36,9);"/>
                </g>
                <g transform="matrix(9.52381,0,0,18.4524,-39812,-28446.8)">
                    <path d="M4586.54,1684.41C4586.54,1684.41 4597.93,1685.68 4600.82,1682.5C4603.7,1679.31 4608.52,1672.99 4605.77,1672.03C4603.03,1671.07 4602.13,1677.9 4598.9,1677.01C4595.66,1676.11 4583.63,1673.88 4583.95,1678.2C4584.27,1682.53 4586.54,1684.41 4586.54,1684.41Z" style="fill:rgb(75,36,9);"/>
                </g>
                <g transform="matrix(9.52381,0,0,18.4524,-39812,-28446.8)">
                    <path d="M4622.57,1628.4C4622.57,1628.4 4624.65,1633.35 4632.78,1636.47C4641.1,1639.67 4626.83,1641.74 4625.06,1639.58C4623.3,1637.42 4619.69,1632.69 4622.57,1628.4Z" style="fill:rgb(75,36,9);"/>
                </g>
            </g>
        </g>
    </g>
</svg>
