<?xml version="1.0" encoding="UTF-8" standalone="no"?>
<!DOCTYPE svg PUBLIC "-//W3C//DTD SVG 1.1//EN" "http://www.w3.org/Graphics/SVG/1.1/DTD/svg11.dtd">
<svg width="100%" height="100%" viewBox="0 0 115 97" version="1.1" xmlns="http://www.w3.org/2000/svg" xmlns:xlink="http://www.w3.org/1999/xlink" xml:space="preserve" xmlns:serif="http://www.serif.com/" style="fill-rule:evenodd;clip-rule:evenodd;stroke-linecap:round;stroke-linejoin:round;stroke-miterlimit:1.5;">
    <g transform="matrix(1,0,0,1,-4577.28,-3103.08)">
        <g id="AsteroidThree" transform="matrix(0.0713428,0,0,0.0312903,4356.12,3096.82)">
            <rect x="3100" y="200" width="1600" height="3100" style="fill:none;"/>
            <g transform="matrix(1.07459,0,0,1.26457,-333.502,-462.992)">
                <g transform="matrix(9.52381,0,0,18.4524,-42154.2,-29171.8)">
                    <path d="M4813.34,1635.13C4825.94,1635.13 4838.62,1630.03 4850.23,1627.02C4859.91,1624.52 4868.99,1623.38 4876.98,1625.55C4880.53,1626.51 4884.78,1629.74 4888.76,1634.79C4894.59,1642.18 4900.75,1654.21 4906.4,1659.22C4907.01,1659.76 4907.55,1660.4 4907.97,1661.11C4914.09,1671.2 4913.22,1681.37 4909.31,1690.53C4906.06,1698.14 4900.58,1704.97 4896.37,1710C4895.74,1710.76 4894.97,1711.4 4894.11,1711.89C4881.74,1718.87 4865.7,1724.2 4851.1,1727.01C4850.37,1727.15 4849.64,1727.19 4848.9,1727.13C4826.93,1725.41 4806.88,1719.99 4787.53,1716.25C4785.92,1715.93 4784.44,1715.15 4783.28,1713.99C4776.25,1706.97 4771.31,1693.31 4767.81,1683.45C4767.5,1682.57 4767.34,1681.64 4767.34,1680.7C4767.34,1670.4 4767.29,1662.72 4768.24,1657.01C4769.12,1651.67 4770.88,1647.66 4773.59,1644.51C4776.36,1641.31 4780.2,1638.88 4785.83,1637.36C4791.89,1635.73 4800.64,1635.13 4813.34,1635.13ZM4813.34,1643.35C4774.31,1643.35 4775.56,1648.32 4775.56,1680.7C4778.69,1689.52 4782.8,1701.89 4789.09,1708.18C4808.15,1711.86 4827.9,1717.24 4849.55,1718.94C4863.3,1716.3 4878.42,1711.31 4890.07,1704.73C4897.61,1695.7 4910.06,1680.42 4900.94,1665.36C4892.49,1657.86 4882.61,1635.59 4874.83,1633.48C4857.99,1628.91 4835.48,1643.35 4813.34,1643.35Z" style="fill:white;"/>
                </g>
                <g transform="matrix(9.52381,0,0,18.4524,-42154.2,-29171.8)">
                    <path d="M4813.34,1643.35C4835.48,1643.35 4857.99,1628.91 4874.83,1633.48C4882.61,1635.59 4892.49,1657.86 4900.94,1665.36C4910.06,1680.42 4897.61,1695.7 4890.07,1704.73C4878.42,1711.31 4863.3,1716.3 4849.55,1718.94C4827.9,1717.24 4808.15,1711.86 4789.09,1708.18C4782.8,1701.89 4778.69,1689.52 4775.56,1680.7C4775.56,1648.32 4774.31,1643.35 4813.34,1643.35Z" style="fill:rgb(179,90,22);stroke:rgb(75,36,9);stroke-width:5.48px;"/>
                </g>
                <g transform="matrix(8.62792,-7.81318,4.03261,16.7166,-44377.6,11811.7)">
                    <path d="M4785.69,1650.81C4785.69,1650.81 4796.19,1647.28 4798.57,1653.41C4800.95,1659.54 4796.58,1655.85 4795.97,1661.91C4795.36,1667.97 4786.84,1666.6 4787.86,1658.64C4788.88,1650.69 4779.02,1660.06 4785.69,1650.81Z" style="fill:rgb(75,36,9);"/>
                </g>
                <g transform="matrix(9.52381,0,0,18.4524,-42130.5,-28454.6)">
                    <path d="M4783.97,1624.5C4783.97,1624.5 4787.77,1618.58 4793.28,1621.5C4798.8,1624.42 4798.61,1625.03 4803.35,1621.56C4808.08,1618.1 4812.48,1637.97 4804.68,1634.43C4796.88,1630.9 4798.28,1625.18 4790.73,1628.4C4783.17,1631.63 4782.12,1629.78 4783.97,1624.5Z" style="fill:rgb(75,36,9);"/>
                </g>
                <g transform="matrix(8.43552,-8.56564,4.42097,16.3438,-43880.3,16532)">
                    <path d="M4847.72,1602.34C4847.72,1602.34 4856.37,1596.8 4859.33,1608.1C4862.29,1619.4 4857.73,1632.3 4854.39,1620.27C4851.05,1608.24 4858.82,1609.43 4847.72,1602.34Z" style="fill:rgb(75,36,9);"/>
                </g>
                <g transform="matrix(9.52381,0,0,18.4524,-42031.7,-28446.8)">
                    <path d="M4878.28,1634.43C4878.28,1634.43 4879.92,1639.77 4876.57,1644.37C4873.22,1648.98 4875.87,1655.11 4868.58,1652.98C4861.3,1650.84 4864.39,1648.58 4868.82,1644.37C4873.26,1640.16 4869.63,1629.22 4878.28,1634.43Z" style="fill:rgb(75,36,9);"/>
                </g>
                <g transform="matrix(9.21231,4.68073,-2.41586,17.8488,-36551.9,-50005.1)">
                    <path d="M4822.83,1636.47C4822.83,1636.47 4829.53,1635.05 4831.15,1627.35C4832.77,1619.66 4837.57,1619.53 4838.39,1624.5C4839.2,1629.46 4841.58,1641.19 4836.94,1639.32C4832.31,1637.45 4835.33,1642.08 4829.92,1643.23C4824.51,1644.38 4814.96,1645.33 4822.83,1636.47Z" style="fill:rgb(75,36,9);"/>
                </g>
                <g transform="matrix(9.0044,-6.01053,3.10221,17.446,-44592.6,2173.33)">
                    <path d="M4815.21,1667.89C4815.21,1667.89 4818.82,1661.45 4822.83,1664.42C4826.84,1667.4 4822.38,1671.39 4829.78,1670.28C4837.18,1669.17 4837.48,1674.9 4829.78,1674.32C4822.08,1673.73 4814.85,1673.3 4815.21,1667.89Z" style="fill:rgb(75,36,9);"/>
                </g>
                <g transform="matrix(9.52381,0,0,18.4524,-42031.7,-28446.8)">
                    <path d="M4814.05,1615.76C4814.05,1615.76 4824.24,1625.23 4832.27,1611.79C4838.24,1601.78 4834.54,1604.68 4828.96,1605.97C4823.38,1607.25 4824.73,1612.12 4822.83,1610.99C4818.54,1608.44 4813.26,1607.12 4813.77,1609.71C4814.28,1612.3 4809.03,1614.1 4814.05,1615.76Z" style="fill:rgb(75,36,9);"/>
                </g>
            </g>
        </g>
    </g>
</svg>
