<?xml version="1.0" encoding="UTF-8" standalone="no"?>
<!DOCTYPE svg PUBLIC "-//W3C//DTD SVG 1.1//EN" "http://www.w3.org/Graphics/SVG/1.1/DTD/svg11.dtd">
<svg width="100%" height="100%" viewBox="0 0 1920 1080" version="1.1" xmlns="http://www.w3.org/2000/svg" xmlns:xlink="http://www.w3.org/1999/xlink" xml:space="preserve" xmlns:serif="http://www.serif.com/" style="fill-rule:evenodd;clip-rule:evenodd;stroke-linejoin:round;stroke-miterlimit:2;">
    <g transform="matrix(1,0,0,1,-15284.7,-4785.92)">
        <g id="BGLargeStars" transform="matrix(0.96,0,0,0.72,15652.5,3769.28)">
            <rect x="-383.112" y="1412" width="2000" height="1500" style="fill:none;"/>
            <g id="Large-Stars" serif:id="Large Stars" transform="matrix(0.159207,-0.0713316,0.040124,0.159207,1289.55,2677.71)">
                <g transform="matrix(3.0822,1.38096,-1.03572,4.10959,-10769,-17079.2)">
                    <circle cx="1471" cy="1574" r="15" style="fill:rgb(71,45,125);"/>
                </g>
                <g transform="matrix(3.0822,1.38096,-1.03572,4.10959,-7019.56,-17113.4)">
                    <circle cx="1471" cy="1574" r="15" style="fill:rgb(71,45,125);"/>
                </g>
                <g transform="matrix(3.0822,1.38096,-1.03572,4.10959,-9155.24,-15546.4)">
                    <circle cx="1471" cy="1574" r="15" style="fill:rgb(71,45,125);"/>
                </g>
                <g transform="matrix(3.0822,1.38096,-1.03572,4.10959,-7532.79,-14042.6)">
                    <circle cx="1471" cy="1574" r="15" style="fill:rgb(71,45,125);"/>
                </g>
                <g transform="matrix(3.0822,1.38096,-1.03572,4.10959,-10281.1,-15245.3)">
                    <circle cx="1471" cy="1574" r="15" style="fill:rgb(71,45,125);"/>
                </g>
                <g transform="matrix(3.0822,1.38096,-1.03572,4.10959,-9905.01,-19069.6)">
                    <circle cx="1471" cy="1574" r="15" style="fill:rgb(71,45,125);"/>
                </g>
                <g transform="matrix(3.0822,1.38096,-1.03572,4.10959,-10740.2,-18584.9)">
                    <circle cx="1471" cy="1574" r="15" style="fill:rgb(71,45,125);"/>
                </g>
                <g transform="matrix(3.0822,1.38096,-1.03572,4.10959,-8606.65,-17021.3)">
                    <circle cx="1471" cy="1574" r="15" style="fill:rgb(71,45,125);"/>
                </g>
                <g transform="matrix(3.0822,1.38096,-1.03572,4.10959,-7367.71,-15905.2)">
                    <circle cx="1471" cy="1574" r="15" style="fill:rgb(71,45,125);"/>
                </g>
                <g transform="matrix(3.0822,1.38096,-1.03572,4.10959,-8721.79,-14181.5)">
                    <circle cx="1471" cy="1574" r="15" style="fill:rgb(71,45,125);"/>
                </g>
                <g transform="matrix(3.0822,1.38096,-1.03572,4.10959,-5538.22,-13025.2)">
                    <circle cx="1471" cy="1574" r="15" style="fill:rgb(71,45,125);"/>
                </g>
                <g transform="matrix(3.0822,1.38096,-1.03572,4.10959,-6840.65,-16167.5)">
                    <circle cx="1471" cy="1574" r="15" style="fill:rgb(71,45,125);"/>
                </g>
                <g transform="matrix(3.0822,1.38096,-1.03572,4.10959,-6040.91,-15562.1)">
                    <circle cx="1471" cy="1574" r="15" style="fill:rgb(71,45,125);"/>
                </g>
                <g transform="matrix(3.0822,1.38096,-1.03572,4.10959,-5794.34,-17019.8)">
                    <circle cx="1471" cy="1574" r="15" style="fill:rgb(71,45,125);"/>
                </g>
                <g transform="matrix(3.0822,1.38096,-1.03572,4.10959,-6685.7,-17825.7)">
                    <circle cx="1471" cy="1574" r="15" style="fill:rgb(71,45,125);"/>
                </g>
                <g transform="matrix(3.0822,1.38096,-1.03572,4.10959,-7418.63,-18188.1)">
                    <circle cx="1471" cy="1574" r="15" style="fill:rgb(71,45,125);"/>
                </g>
                <g transform="matrix(0.947913,0.424706,-0.318529,1.26388,-5375.91,-12322.5)">
                    <circle cx="1471" cy="1574" r="15" style="fill:rgb(71,45,125);"/>
                </g>
                <g transform="matrix(1,5.55112e-17,-7.40149e-17,1.33333,-6113.07,-7675.08)">
                    <circle cx="1471" cy="1574" r="15" style="fill:rgb(71,45,125);"/>
                </g>
                <g transform="matrix(3.0822,1.38096,-1.03572,4.10959,-4619.21,-14323.8)">
                    <circle cx="1471" cy="1574" r="15" style="fill:rgb(71,45,125);"/>
                </g>
                <g transform="matrix(3.0822,1.38096,-1.03572,4.10959,-869.719,-14358.1)">
                    <circle cx="1471" cy="1574" r="15" style="fill:rgb(71,45,125);"/>
                </g>
                <g transform="matrix(3.0822,1.38096,-1.03572,4.10959,-3005.41,-12791)">
                    <circle cx="1471" cy="1574" r="15" style="fill:rgb(71,45,125);"/>
                </g>
                <g transform="matrix(3.0822,1.38096,-1.03572,4.10959,-1382.95,-11287.2)">
                    <circle cx="1471" cy="1574" r="15" style="fill:rgb(71,45,125);"/>
                </g>
                <g transform="matrix(3.0822,1.38096,-1.03572,4.10959,-4131.23,-12489.9)">
                    <circle cx="1471" cy="1574" r="15" style="fill:rgb(71,45,125);"/>
                </g>
                <g transform="matrix(3.0822,1.38096,-1.03572,4.10959,-3755.17,-16314.2)">
                    <circle cx="1471" cy="1574" r="15" style="fill:rgb(71,45,125);"/>
                </g>
                <g transform="matrix(3.0822,1.38096,-1.03572,4.10959,-4590.37,-15829.5)">
                    <circle cx="1471" cy="1574" r="15" style="fill:rgb(71,45,125);"/>
                </g>
                <g transform="matrix(3.0822,1.38096,-1.03572,4.10959,-2456.81,-14265.9)">
                    <circle cx="1471" cy="1574" r="15" style="fill:rgb(71,45,125);"/>
                </g>
                <g transform="matrix(3.0822,1.38096,-1.03572,4.10959,-1217.87,-13149.8)">
                    <circle cx="1471" cy="1574" r="15" style="fill:rgb(71,45,125);"/>
                </g>
                <g transform="matrix(3.0822,1.38096,-1.03572,4.10959,-2571.95,-11426.1)">
                    <circle cx="1471" cy="1574" r="15" style="fill:rgb(71,45,125);"/>
                </g>
                <g transform="matrix(3.0822,1.38096,-1.03572,4.10959,-690.813,-13412.1)">
                    <circle cx="1471" cy="1574" r="15" style="fill:rgb(71,45,125);"/>
                </g>
                <g transform="matrix(3.0822,1.38096,-1.03572,4.10959,-230.11,-12958.6)">
                    <circle cx="1471" cy="1574" r="15" style="fill:rgb(71,45,125);"/>
                </g>
                <g transform="matrix(3.0822,1.38096,-1.03572,4.10959,355.493,-14264.4)">
                    <circle cx="1471" cy="1574" r="15" style="fill:rgb(71,45,125);"/>
                </g>
                <g transform="matrix(3.0822,1.38096,-1.03572,4.10959,-535.865,-15070.3)">
                    <circle cx="1471" cy="1574" r="15" style="fill:rgb(71,45,125);"/>
                </g>
                <g transform="matrix(3.0822,1.38096,-1.03572,4.10959,-1268.79,-15432.7)">
                    <circle cx="1471" cy="1574" r="15" style="fill:rgb(71,45,125);"/>
                </g>
                <g transform="matrix(0.947913,0.424706,-0.318529,1.26388,773.929,-9567.07)">
                    <circle cx="1471" cy="1574" r="15" style="fill:rgb(71,45,125);"/>
                </g>
                <g transform="matrix(3.0822,1.38096,-1.03572,4.10959,-11929.9,-12472.9)">
                    <circle cx="1471" cy="1574" r="15" style="fill:rgb(71,45,125);"/>
                </g>
                <g transform="matrix(3.0822,1.38096,-1.03572,4.10959,-8180.45,-12507.2)">
                    <circle cx="1471" cy="1574" r="15" style="fill:rgb(71,45,125);"/>
                </g>
                <g transform="matrix(3.0822,1.38096,-1.03572,4.10959,-10316.1,-10940.1)">
                    <circle cx="1471" cy="1574" r="15" style="fill:rgb(71,45,125);"/>
                </g>
                <g transform="matrix(3.0822,1.38096,-1.03572,4.10959,-8461.93,-10058.5)">
                    <circle cx="1471" cy="1574" r="15" style="fill:rgb(71,45,125);"/>
                </g>
                <g transform="matrix(3.0822,1.38096,-1.03572,4.10959,-11065.9,-14463.3)">
                    <circle cx="1471" cy="1574" r="15" style="fill:rgb(71,45,125);"/>
                </g>
                <g transform="matrix(3.0822,1.38096,-1.03572,4.10959,-11901.1,-13978.6)">
                    <circle cx="1471" cy="1574" r="15" style="fill:rgb(71,45,125);"/>
                </g>
                <g transform="matrix(3.0822,1.38096,-1.03572,4.10959,-9767.55,-12415)">
                    <circle cx="1471" cy="1574" r="15" style="fill:rgb(71,45,125);"/>
                </g>
                <g transform="matrix(3.0822,1.38096,-1.03572,4.10959,-8528.6,-11298.9)">
                    <circle cx="1471" cy="1574" r="15" style="fill:rgb(71,45,125);"/>
                </g>
                <g transform="matrix(3.0822,1.38096,-1.03572,4.10959,-7450.19,-9742.43)">
                    <circle cx="1471" cy="1574" r="15" style="fill:rgb(71,45,125);"/>
                </g>
                <g transform="matrix(3.0822,1.38096,-1.03572,4.10959,-8001.55,-11561.2)">
                    <circle cx="1471" cy="1574" r="15" style="fill:rgb(71,45,125);"/>
                </g>
                <g transform="matrix(3.0822,1.38096,-1.03572,4.10959,-7201.8,-10955.8)">
                    <circle cx="1471" cy="1574" r="15" style="fill:rgb(71,45,125);"/>
                </g>
                <g transform="matrix(3.0822,1.38096,-1.03572,4.10959,-6955.24,-12413.5)">
                    <circle cx="1471" cy="1574" r="15" style="fill:rgb(71,45,125);"/>
                </g>
                <g transform="matrix(3.0822,1.38096,-1.03572,4.10959,-6659.16,-13289.4)">
                    <circle cx="1471" cy="1574" r="15" style="fill:rgb(71,45,125);"/>
                </g>
                <g transform="matrix(3.0822,1.38096,-1.03572,4.10959,-8855.58,-12813.2)">
                    <circle cx="1471" cy="1574" r="15" style="fill:rgb(71,45,125);"/>
                </g>
                <g transform="matrix(3.0822,1.38096,-1.03572,4.10959,-5780.1,-9717.53)">
                    <circle cx="1471" cy="1574" r="15" style="fill:rgb(71,45,125);"/>
                </g>
                <g transform="matrix(3.0822,1.38096,-1.03572,4.10959,-2030.62,-9751.76)">
                    <circle cx="1471" cy="1574" r="15" style="fill:rgb(71,45,125);"/>
                </g>
                <g transform="matrix(3.0822,1.38096,-1.03572,4.10959,-4166.3,-8184.74)">
                    <circle cx="1471" cy="1574" r="15" style="fill:rgb(71,45,125);"/>
                </g>
                <g transform="matrix(3.0822,1.38096,-1.03572,4.10959,-4916.07,-11707.9)">
                    <circle cx="1471" cy="1574" r="15" style="fill:rgb(71,45,125);"/>
                </g>
                <g transform="matrix(3.0822,1.38096,-1.03572,4.10959,-5751.27,-11223.3)">
                    <circle cx="1471" cy="1574" r="15" style="fill:rgb(71,45,125);"/>
                </g>
                <g transform="matrix(3.0822,1.38096,-1.03572,4.10959,-3617.71,-9659.64)">
                    <circle cx="1471" cy="1574" r="15" style="fill:rgb(71,45,125);"/>
                </g>
                <g transform="matrix(3.0822,1.38096,-1.03572,4.10959,-2378.77,-8543.47)">
                    <circle cx="1471" cy="1574" r="15" style="fill:rgb(71,45,125);"/>
                </g>
                <g transform="matrix(3.0822,1.38096,-1.03572,4.10959,-1851.71,-8805.82)">
                    <circle cx="1471" cy="1574" r="15" style="fill:rgb(71,45,125);"/>
                </g>
                <g transform="matrix(3.0822,1.38096,-1.03572,4.10959,-1473.04,-8026.81)">
                    <circle cx="1471" cy="1574" r="15" style="fill:rgb(71,45,125);"/>
                </g>
                <g transform="matrix(3.0822,1.38096,-1.03572,4.10959,-805.403,-9658.14)">
                    <circle cx="1471" cy="1574" r="15" style="fill:rgb(71,45,125);"/>
                </g>
                <g transform="matrix(3.0822,1.38096,-1.03572,4.10959,-1696.76,-10464)">
                    <circle cx="1471" cy="1574" r="15" style="fill:rgb(71,45,125);"/>
                </g>
                <g transform="matrix(3.0822,1.38096,-1.03572,4.10959,-2429.69,-10826.4)">
                    <circle cx="1471" cy="1574" r="15" style="fill:rgb(71,45,125);"/>
                </g>
            </g>
        </g>
    </g>
</svg>
