<?xml version="1.0" encoding="UTF-8" standalone="no"?>
<!DOCTYPE svg PUBLIC "-//W3C//DTD SVG 1.1//EN" "http://www.w3.org/Graphics/SVG/1.1/DTD/svg11.dtd">
<svg width="100%" height="100%" viewBox="0 0 240 139" version="1.1" xmlns="http://www.w3.org/2000/svg" xmlns:xlink="http://www.w3.org/1999/xlink" xml:space="preserve" xmlns:serif="http://www.serif.com/" style="fill-rule:evenodd;clip-rule:evenodd;stroke-linecap:round;stroke-linejoin:round;stroke-miterlimit:1.5;">
    <g transform="matrix(1,0,0,1,-4518.69,-2755.17)">
        <g id="FlyingSaucer" transform="matrix(0.15,0,0,0.0447623,4053.69,2746.21)">
            <rect x="3100" y="200" width="1600" height="3100" style="fill:none;"/>
            <g transform="matrix(1.17532,0,0,2.03279,-683.751,-1799.91)">
                <g transform="matrix(1,0,0,1,-7.27596e-12,-15.1438)">
                    <g transform="matrix(9.52381,0,0,22.668,-37518.2,-40970)">
                        <ellipse cx="4348.91" cy="1888.1" rx="61.183" ry="23.692" style="fill:rgb(113,113,113);"/>
                        <path d="M4348.91,1861.99C4369.84,1861.99 4388.39,1866 4399.9,1872.08C4408.33,1876.53 4413.07,1882.16 4413.07,1888.1C4413.07,1894.04 4408.33,1899.67 4399.9,1904.12C4388.39,1910.2 4369.84,1914.22 4348.91,1914.22C4327.97,1914.22 4309.42,1910.2 4297.91,1904.12C4289.48,1899.67 4284.74,1894.04 4284.74,1888.1C4284.74,1882.16 4289.48,1876.53 4297.91,1872.08C4309.42,1866 4327.97,1861.99 4348.91,1861.99ZM4348.91,1864.41C4315.14,1864.41 4287.72,1875.03 4287.72,1888.1C4287.72,1901.18 4315.14,1911.8 4348.91,1911.8C4382.67,1911.8 4410.09,1901.18 4410.09,1888.1C4410.09,1875.03 4382.67,1864.41 4348.91,1864.41Z" style="fill:white;"/>
                    </g>
                    <g transform="matrix(9.52381,0,0,19.5276,-37518.2,-35073.9)">
                        <ellipse cx="4348.91" cy="1888.1" rx="61.183" ry="23.692" style="fill:rgb(235,235,235);"/>
                        <path d="M4348.91,1861.6C4369.77,1861.6 4388.26,1865.6 4399.73,1871.66C4408.33,1876.2 4413.07,1882.05 4413.07,1888.1C4413.07,1894.16 4408.33,1900.01 4399.73,1904.55C4388.26,1910.6 4369.77,1914.61 4348.91,1914.61C4328.04,1914.61 4309.55,1910.6 4298.08,1904.55C4289.49,1900.01 4284.74,1894.16 4284.74,1888.1C4284.74,1882.05 4289.49,1876.2 4298.08,1871.66C4309.55,1865.6 4328.04,1861.6 4348.91,1861.6ZM4348.91,1864.41C4315.14,1864.41 4287.72,1875.03 4287.72,1888.1C4287.72,1901.18 4315.14,1911.8 4348.91,1911.8C4382.67,1911.8 4410.09,1901.18 4410.09,1888.1C4410.09,1875.03 4382.67,1864.41 4348.91,1864.41Z" style="fill:white;"/>
                    </g>
                    <g id="circle-fill" serif:id="circle fill" transform="matrix(0.867051,0,0,1.67991,3475.14,911.829)">
                        <path d="M490,150C661.094,150 800,288.906 800,460C800,514.581 676.519,602.872 505.425,602.872C334.332,602.872 180,549.439 180,460C180,288.906 318.906,150 490,150Z" style="fill:rgb(209,209,209);"/>
                        <path d="M490,95.079C691.405,95.079 854.921,258.595 854.921,460C854.921,487.563 840.48,522.537 806.513,554.769C752.537,605.989 642.727,657.792 505.425,657.792C391.91,657.792 285.384,635.018 218.072,596.639C157.269,561.971 125.079,513.602 125.079,460C125.079,258.595 288.595,95.079 490,95.079ZM490,150C318.906,150 180,288.906 180,460C180,549.439 334.332,602.872 505.425,602.872C676.519,602.872 800,514.581 800,460C800,288.906 661.094,150 490,150Z" style="fill:white;"/>
                    </g>
                </g>
                <g transform="matrix(9.52381,0,0,22.668,-37518.2,-40985.2)">
                    <ellipse cx="4348.91" cy="1888.1" rx="61.183" ry="23.692" style="fill:rgb(113,113,113);"/>
                </g>
                <g transform="matrix(9.52381,0,0,19.5276,-37518.2,-35089.1)">
                    <ellipse cx="4348.91" cy="1888.1" rx="61.183" ry="23.692" style="fill:rgb(235,235,235);"/>
                    <path d="M4348.91,1863.29C4369.41,1863.29 4387.59,1867.18 4398.86,1873.13C4406.75,1877.3 4411.28,1882.54 4411.28,1888.1C4411.28,1893.66 4406.75,1898.9 4398.86,1903.07C4387.59,1909.03 4369.41,1912.92 4348.91,1912.92C4328.4,1912.92 4310.22,1909.03 4298.95,1903.07C4291.06,1898.9 4286.53,1893.66 4286.53,1888.1C4286.53,1882.54 4291.06,1877.3 4298.95,1873.13C4310.22,1867.18 4328.4,1863.29 4348.91,1863.29ZM4348.91,1864.41C4315.14,1864.41 4287.72,1875.03 4287.72,1888.1C4287.72,1901.18 4315.14,1911.8 4348.91,1911.8C4382.67,1911.8 4410.09,1901.18 4410.09,1888.1C4410.09,1875.03 4382.67,1864.41 4348.91,1864.41Z" style="fill:rgb(113,113,113);"/>
                </g>
                <g id="circle-fill1" serif:id="circle fill" transform="matrix(0.867051,0,0,1.67991,3475.14,896.686)">
                    <path d="M490,150C661.094,150 800,288.906 800,460C800,514.581 676.519,602.872 505.425,602.872C334.332,602.872 180,549.439 180,460C180,288.906 318.906,150 490,150Z" style="fill:rgb(209,209,209);stroke:rgb(113,113,113);stroke-width:21.97px;"/>
                </g>
                <g transform="matrix(0.895953,0,0,1.73591,3433.86,1053.15)">
                    <path d="M630,150C630,150 684.55,175.256 714,240" style="fill:none;stroke:rgb(241,241,241);stroke-width:21.26px;"/>
                </g>
                <g transform="matrix(0.895953,0,0,1.73591,3452.43,1044.52)">
                    <path d="M199.552,347.063C199.552,347.063 282.706,457.348 500,456.881C717.294,456.414 799.552,350 799.552,350L799.552,412.312C799.552,412.312 727.51,524.32 500,530C267.89,535.795 199.552,411.978 199.552,411.978L199.552,347.063Z" style="fill:rgb(235,235,235);"/>
                </g>
                <g transform="matrix(0.867051,0,0,0.776959,3476.11,1359.79)">
                    <path d="M798.967,353.86C771.152,437.771 698.183,615.41 490,615C320.99,614.667 220.65,490.352 178.967,353.86C178.611,475.684 178.967,513.836 178.967,513.836C217.992,660.804 340.201,770.064 490,770C641.072,769.936 760.161,657.798 798.967,512.522L798.967,353.86Z" style="fill:none;stroke:rgb(113,113,113);stroke-width:24.54px;"/>
                </g>
                <g transform="matrix(9.52381,0,0,18.4524,-37630.5,-33606)">
                    <path d="M4332.48,1908.53C4332.48,1908.53 4317.03,1908.55 4299.52,1917.75" style="fill:none;stroke:rgb(113,113,113);stroke-width:1.19px;"/>
                </g>
                <g transform="matrix(-9.52381,0,0,18.4524,45430.5,-33606)">
                    <path d="M4332.48,1908.53C4332.48,1908.53 4317.03,1908.55 4299.52,1917.75" style="fill:none;stroke:rgb(113,113,113);stroke-width:1.19px;"/>
                </g>
                <g transform="matrix(6.28682,0,0,21.2274,-23538.3,-38618.5)">
                    <path d="M4333.01,1907.77C4333.01,1907.77 4315.27,1911.24 4301.15,1920.14" style="fill:none;stroke:rgb(113,113,113);stroke-width:1.27px;"/>
                </g>
                <g transform="matrix(-6.28682,0,0,21.2274,31338.3,-38618.5)">
                    <path d="M4333.01,1907.77C4333.01,1907.77 4315.27,1911.24 4301.15,1920.14" style="fill:none;stroke:rgb(113,113,113);stroke-width:1.27px;"/>
                </g>
                <g transform="matrix(6.28682,0,0,21.2274,-23287.2,-38543.7)">
                    <path d="M4324.48,1908.49L4324.48,1925.24" style="fill:none;stroke:rgb(113,113,113);stroke-width:1.27px;"/>
                </g>
                <g transform="matrix(9.52381,0,0,18.4524,-37630.5,-33606)">
                    <path d="M4386.16,1899.31C4386.16,1899.31 4388.31,1897.21 4394.19,1895.96" style="fill:none;stroke:rgb(113,113,113);stroke-width:1.19px;"/>
                </g>
                <g transform="matrix(-9.52381,0,0,18.4524,45428,-33606)">
                    <path d="M4386.16,1899.31C4386.16,1899.31 4388.31,1897.21 4394.19,1895.96" style="fill:none;stroke:rgb(113,113,113);stroke-width:1.19px;"/>
                </g>
            </g>
        </g>
    </g>
</svg>
