<?xml version="1.0" encoding="UTF-8" standalone="no"?>
<!DOCTYPE svg PUBLIC "-//W3C//DTD SVG 1.1//EN" "http://www.w3.org/Graphics/SVG/1.1/DTD/svg11.dtd">
<svg width="100%" height="100%" viewBox="0 0 108 60" version="1.1" xmlns="http://www.w3.org/2000/svg" xmlns:xlink="http://www.w3.org/1999/xlink" xml:space="preserve" xmlns:serif="http://www.serif.com/" style="fill-rule:evenodd;clip-rule:evenodd;stroke-linecap:round;stroke-linejoin:round;stroke-miterlimit:1.5;">
    <g transform="matrix(1,0,0,1,-4790.4,-2759.43)">
        <g id="RocketLauncher" transform="matrix(0.0675,0,0,0.0193548,4581.15,2755.55)">
            <rect x="3100" y="200" width="1600" height="3100" style="fill:none;"/>
            <clipPath id="_clip1">
                <rect x="3100" y="200" width="1600" height="3100"/>
            </clipPath>
            <g clip-path="url(#_clip1)">
                <g transform="matrix(9.52503e-17,5.425,-0.802867,1.71451e-16,5882.97,-19411.1)">
                    <g>
                        <g transform="matrix(4.36531,0,0,16.2966,-7733.38,-22503.6)">
                            <rect x="2648.99" y="1560.96" width="31.953" height="32.618" style="fill:rgb(209,209,209);"/>
                            <path d="M2691.85,1560.96L2691.85,1593.58C2691.85,1596.7 2686.96,1599.24 2680.94,1599.24L2648.99,1599.24C2642.96,1599.24 2638.08,1596.7 2638.08,1593.58L2638.08,1560.96C2638.08,1557.83 2642.96,1555.3 2648.99,1555.3L2680.94,1555.3C2686.96,1555.3 2691.85,1557.83 2691.85,1560.96ZM2680.94,1560.96L2648.99,1560.96L2648.99,1593.58L2680.94,1593.58L2680.94,1560.96Z" style="fill:white;"/>
                        </g>
                        <g transform="matrix(0.702606,0,0,0.629601,3556.45,2573.18)">
                            <path d="M798.967,508.86C750.4,655.377 661.094,770 490,770C318.906,770 220.3,644.206 178.967,508.86L178.967,-837.247L798.967,-827.669L798.967,508.86Z" style="fill:rgb(209,209,209);"/>
                            <path d="M854.054,594.225C796.461,767.975 692.894,916.54 490,916.54C286.183,916.54 171.648,750.839 122.409,589.606C115.092,565.648 111.192,537.57 111.192,508.86L111.192,-837.247C111.192,-876.293 118.399,-913.725 131.214,-941.236C144.029,-968.747 161.392,-984.062 179.451,-983.783L799.451,-974.206C836.692,-973.63 866.742,-908.192 866.742,-827.669L866.742,508.86C866.742,539.482 862.305,569.335 854.054,594.225ZM798.967,508.86L798.967,-827.669L178.967,-837.247L178.967,508.86C220.3,644.206 318.906,770 490,770C661.094,770 750.4,655.377 798.967,508.86Z" style="fill:white;"/>
                        </g>
                        <g transform="matrix(0.702606,0,0,0.629601,3556.45,1726.93)">
                            <path d="M229.602,65.945C248.348,-93.968 259.27,-211.485 490,-211.485C683.525,-211.485 716.017,-129.549 740.504,65.945C764.063,254.035 798.967,506.853 798.967,506.853C750.4,653.37 661.094,770 490,770C318.906,770 220.3,642.199 178.967,506.853C178.967,506.853 207.056,258.283 229.602,65.945Z" style="fill:rgb(113,113,113);"/>
                            <path d="M163.905,29.942C174.386,-59.472 185.879,-136.732 213.226,-200.462C249.304,-284.54 319.795,-358.025 490,-358.025C632.723,-358.025 702.431,-305.116 743.27,-224.208C774.246,-162.84 792.225,-81.717 805.922,27.639C829.288,214.19 863.91,464.937 863.91,464.937C869.907,508.376 866.268,555.371 854.054,592.218C796.468,765.946 692.869,916.54 490,916.54C286.207,916.54 171.642,748.812 122.409,587.599C112.014,553.561 108.651,511.695 113.129,472.071C113.129,472.071 141.296,222.813 163.905,29.942ZM229.602,65.945C207.056,258.283 178.967,506.853 178.967,506.853C220.3,642.199 318.906,770 490,770C661.094,770 750.4,653.37 798.967,506.853C798.967,506.853 764.063,254.035 740.504,65.945C716.017,-129.549 683.525,-211.485 490,-211.485C259.27,-211.485 248.348,-93.968 229.602,65.945Z" style="fill:white;"/>
                        </g>
                    </g>
                    <g transform="matrix(4.36531,0,0,16.2966,-7733.38,-22503.6)">
                        <rect x="2648.99" y="1560.96" width="31.953" height="32.618" style="fill:rgb(209,209,209);"/>
                        <path d="M2685.97,1560.96L2685.97,1593.58C2685.97,1595.02 2683.72,1596.19 2680.94,1596.19L2648.99,1596.19C2646.21,1596.19 2643.95,1595.02 2643.95,1593.58L2643.95,1560.96C2643.95,1559.52 2646.21,1558.35 2648.99,1558.35L2680.94,1558.35C2683.72,1558.35 2685.97,1559.52 2685.97,1560.96ZM2680.94,1560.96L2648.99,1560.96L2648.99,1593.58L2680.94,1593.58L2680.94,1560.96Z" style="fill:rgb(113,113,113);"/>
                    </g>
                    <g transform="matrix(4.36531,0,0,11.0403,-7733.38,-14298.8)">
                        <path d="M2648.99,1577.16L2648.99,1560.96L2680.94,1560.96L2680.94,1577.39C2676.47,1578.33 2671.31,1578.86 2665.35,1578.86C2659.13,1578.86 2653.7,1578.23 2648.99,1577.16Z" style="fill:rgb(113,113,113);stroke:rgb(113,113,113);stroke-width:3.28px;"/>
                    </g>
                    <g transform="matrix(0.702606,0,0,0.629601,3556.45,2573.18)">
                        <path d="M798.967,508.86C750.4,655.377 661.094,770 490,770C318.906,770 220.3,644.206 178.967,508.86L178.967,-837.247L798.967,-827.669L798.967,508.86Z" style="fill:rgb(209,209,209);stroke:rgb(113,113,113);stroke-width:34.8px;"/>
                    </g>
                    <g transform="matrix(0.702606,0,0,0.629601,3556.45,2265.45)">
                        <path d="M798.967,273.992L798.967,508.86C750.4,655.377 661.094,770 490,770C318.906,770 220.3,644.206 178.967,508.86L178.967,273.992C220.3,409.338 318.906,535.132 490,535.132C661.094,535.132 750.4,420.509 798.967,273.992Z" style="fill:rgb(235,235,235);stroke:rgb(113,113,113);stroke-width:34.8px;"/>
                    </g>
                    <g transform="matrix(-0.943848,0,0,1.82871,4127.12,1811.17)">
                        <circle cx="280" cy="570" r="10" style="fill:rgb(113,113,113);"/>
                    </g>
                    <g transform="matrix(-0.943848,0,0,1.82871,4206.35,1811.17)">
                        <circle cx="280" cy="570" r="10" style="fill:rgb(113,113,113);"/>
                    </g>
                    <g transform="matrix(-0.943848,0,0,1.82871,4121.66,1627.36)">
                        <circle cx="280" cy="570" r="10" style="fill:rgb(113,113,113);"/>
                    </g>
                    <g transform="matrix(-0.943848,0,0,1.82871,4217.06,1627.36)">
                        <circle cx="280" cy="570" r="10" style="fill:rgb(113,113,113);"/>
                    </g>
                    <g transform="matrix(-0.943848,0,0,1.82871,4215.11,1389.38)">
                        <circle cx="280" cy="570" r="10" style="fill:rgb(113,113,113);"/>
                    </g>
                    <g transform="matrix(-0.943848,0,0,1.82871,4288.52,1363.76)">
                        <circle cx="280" cy="570" r="10" style="fill:rgb(113,113,113);"/>
                    </g>
                    <g transform="matrix(-0.943848,0,0,1.82871,4216.31,1478.75)">
                        <circle cx="280" cy="570" r="10" style="fill:rgb(113,113,113);"/>
                    </g>
                    <g transform="matrix(-0.943848,0,0,1.82871,4289.72,1453.13)">
                        <circle cx="280" cy="570" r="10" style="fill:rgb(113,113,113);"/>
                    </g>
                    <g transform="matrix(-0.943848,0,0,1.82871,4312.47,1590.45)">
                        <circle cx="280" cy="570" r="10" style="fill:rgb(113,113,113);"/>
                    </g>
                    <g transform="matrix(-0.943848,0,0,1.82871,4026.26,1590.45)">
                        <circle cx="280" cy="570" r="10" style="fill:rgb(113,113,113);"/>
                    </g>
                    <g transform="matrix(-0.943848,0,0,1.82871,4127.12,1929.18)">
                        <circle cx="280" cy="570" r="10" style="fill:rgb(113,113,113);"/>
                    </g>
                    <g transform="matrix(-0.943848,0,0,1.82871,4206.35,1929.18)">
                        <circle cx="280" cy="570" r="10" style="fill:rgb(113,113,113);"/>
                    </g>
                    <g transform="matrix(0.943848,0,0,1.82871,3428.08,2499.83)">
                        <path d="M500,136.935L500,305.212" style="fill:none;stroke:rgb(113,113,113);stroke-width:19.68px;"/>
                    </g>
                    <g transform="matrix(0.943848,0,0,1.82871,3516.99,2093.29)">
                        <path d="M500,147.164L500,262.779" style="fill:none;stroke:rgb(113,113,113);stroke-width:19.68px;"/>
                    </g>
                    <g transform="matrix(0.702606,0,0,0.629601,3556.45,1726.93)">
                        <path d="M229.602,65.945C248.348,-93.968 259.27,-211.485 490,-211.485C683.525,-211.485 716.017,-129.549 740.504,65.945C764.063,254.035 798.967,506.853 798.967,506.853C750.4,653.37 661.094,770 490,770C318.906,770 220.3,642.199 178.967,506.853C178.967,506.853 207.056,258.283 229.602,65.945Z" style="fill:rgb(113,113,113);stroke:rgb(71,71,71);stroke-width:34.8px;"/>
                    </g>
                    <g transform="matrix(0.943848,0,0,1.82871,3055.41,1631.33)">
                        <path d="M742.193,122.179L720.037,206.08" style="fill:none;stroke:rgb(155,155,155);stroke-width:29.51px;"/>
                    </g>
                    <g transform="matrix(2.50627,0,0,8.73939,-2807.98,-11281.4)">
                        <ellipse cx="2676" cy="1489.38" rx="57" ry="9.625" style="fill:rgb(71,71,71);"/>
                    </g>
                    <g transform="matrix(0.702606,0,0,0.629601,3556.45,1873.54)">
                        <path d="M798.967,273.992L797.933,539.448C749.367,685.965 660.06,800.588 488.967,800.588C317.873,800.588 219.267,674.794 177.933,539.448L178.967,273.992C220.3,409.338 318.906,535.132 490,535.132C661.094,535.132 750.4,420.509 798.967,273.992Z" style="fill:rgb(113,113,113);stroke:rgb(71,71,71);stroke-width:34.8px;"/>
                    </g>
                    <g transform="matrix(0.943848,0,0,1.82871,3058.13,2215.27)">
                        <path d="M714.008,88.766L714.006,121.774" style="fill:none;stroke:rgb(241,241,241);stroke-width:29.51px;"/>
                    </g>
                </g>
            </g>
        </g>
    </g>
</svg>
