<?xml version="1.0" encoding="UTF-8" standalone="no"?>
<!DOCTYPE svg PUBLIC "-//W3C//DTD SVG 1.1//EN" "http://www.w3.org/Graphics/SVG/1.1/DTD/svg11.dtd">
<svg width="100%" height="100%" viewBox="0 0 166 71" version="1.1" xmlns="http://www.w3.org/2000/svg" xmlns:xlink="http://www.w3.org/1999/xlink" xml:space="preserve" xmlns:serif="http://www.serif.com/" style="fill-rule:evenodd;clip-rule:evenodd;stroke-linecap:round;stroke-linejoin:round;stroke-miterlimit:1.5;">
    <g transform="matrix(1,0,0,1,-4843.68,-2839.79)">
        <g id="Shotgun" transform="matrix(0.10375,0,0,0.0229032,4522.05,2835.21)">
            <rect x="3100" y="200" width="1600" height="3100" style="fill:none;"/>
            <clipPath id="_clip1">
                <rect x="3100" y="200" width="1600" height="3100"/>
            </clipPath>
            <g clip-path="url(#_clip1)">
                <g transform="matrix(3.75742e-17,2.77971,-0.320277,8.88378e-17,4767.78,-9034.39)">
                    <g>
                        <g>
                            <g transform="matrix(7.15786,0,9.88113e-31,89.4617,-15195.8,-137048)">
                                <rect x="2648.99" y="1560.96" width="31.953" height="32.618" style="fill:rgb(209,209,209);"/>
                                <path d="M2691.91,1560.96L2691.91,1593.58C2691.91,1594.51 2687,1595.26 2680.94,1595.26L2648.99,1595.26C2642.93,1595.26 2638.01,1594.51 2638.01,1593.58L2638.01,1560.96C2638.01,1560.03 2642.93,1559.28 2648.99,1559.28L2680.94,1559.28C2687,1559.28 2691.91,1560.03 2691.91,1560.96ZM2680.94,1560.96L2648.99,1560.96L2648.99,1593.58L2680.94,1593.58L2680.94,1560.96Z" style="fill:white;"/>
                            </g>
                            <g transform="matrix(1.15207,0,0,1.03237,3316.35,2005.25)">
                                <path d="M854.585,593.14C796.904,767.151 693.199,915.755 490,915.755C285.88,915.755 171.199,750.02 121.887,588.548C114.65,564.851 110.797,537.162 110.797,508.86L110.797,-874.471C110.797,-954.969 141.317,-1020.23 178.967,-1020.23L798.967,-1020.23C836.616,-1020.23 867.137,-954.969 867.137,-874.471L867.137,508.86C867.137,539.055 862.751,568.505 854.585,593.14ZM798.967,508.86L798.967,-874.471L178.967,-874.471L178.967,508.86C220.3,644.206 318.906,770 490,770C661.094,770 750.4,655.377 798.967,508.86Z" style="fill:white;"/>
                            </g>
                            <g transform="matrix(1.15207,0,0,1.03237,3317.63,617.65)">
                                <path d="M31.912,175.618L24.843,114.191L26.038,50.811L34.567,-6.281L47.805,-53.721C68.376,-113.139 109.187,-175.492 168.356,-222.456C246.214,-284.254 360.168,-327.378 490,-327.378C685.755,-327.378 834.243,-232.228 897.104,-123.946C924.62,-76.55 940.425,-23.368 947.208,27.889L951.376,98.523L945.347,169.184C915.994,351.718 858.947,578.128 858.947,578.128C857.636,583.316 856.179,588.329 854.585,593.14C796.904,767.151 693.199,915.755 490,915.755C285.88,915.755 171.199,750.02 121.887,588.548C120.517,584.061 119.263,579.416 118.132,574.634C118.132,574.634 61.571,335.194 31.912,175.618ZM95.264,121.792C124.038,276.61 178.967,508.86 178.967,508.86C220.3,644.206 318.906,770 490,770C661.094,770 750.4,655.377 798.967,508.86C798.967,508.86 853.09,294.61 880.882,121.792C905.203,-29.451 739.52,-181.623 490,-181.623C249.566,-181.623 67.56,-27.267 95.264,121.792Z" style="fill:white;"/>
                            </g>
                        </g>
                        <g>
                            <g transform="matrix(7.15786,3.5291e-31,9.88113e-31,94.5155,-15195.8,-144937)">
                                <rect x="2648.99" y="1560.96" width="31.953" height="32.618" style="fill:rgb(209,209,209);"/>
                                <path d="M2686,1560.96L2686,1593.58C2686,1593.98 2683.74,1594.31 2680.94,1594.31L2648.99,1594.31C2646.19,1594.31 2643.92,1593.98 2643.92,1593.58L2643.92,1560.96C2643.92,1560.56 2646.19,1560.23 2648.99,1560.23L2680.94,1560.23C2683.74,1560.23 2686,1560.56 2686,1560.96ZM2680.94,1560.96L2648.99,1560.96L2648.99,1593.58L2680.94,1593.58L2680.94,1560.96Z" style="fill:rgb(113,113,113);"/>
                            </g>
                            <g transform="matrix(7.15786,0,0,18.103,-15195.8,-25660)">
                                <path d="M2648.99,1577.16L2648.99,1560.96L2680.94,1560.96L2680.94,1577.39C2676.47,1578.33 2671.31,1578.86 2665.35,1578.86C2659.13,1578.86 2653.7,1578.23 2648.99,1577.16Z" style="fill:rgb(113,113,113);stroke:rgb(113,113,113);stroke-width:3.28px;"/>
                            </g>
                            <g transform="matrix(1,0,0,1,-1.27572,0)">
                                <g transform="matrix(1.15207,0,0,1.03237,3317.63,2005.25)">
                                    <path d="M798.967,508.86C750.4,655.377 661.094,770 490,770C318.906,770 220.3,644.206 178.967,508.86L178.967,-874.471L798.967,-874.471L798.967,508.86Z" style="fill:rgb(209,209,209);stroke:rgb(113,113,113);stroke-width:34.93px;"/>
                                </g>
                                <g transform="matrix(9.52381,0,0,18.4524,-21501.7,-26205.4)">
                                    <path d="M2665.18,1571.91L2665.18,1523.37C2665.18,1523.37 2687,1528.32 2702.68,1510.62L2702.68,1557.39C2702.68,1557.39 2692.56,1571.91 2665.18,1571.91Z" style="fill:rgb(235,235,235);"/>
                                </g>
                                <g transform="matrix(-1.54764,0,0,2.99856,4377.21,-155.554)">
                                    <circle cx="280" cy="570" r="10" style="fill:rgb(113,113,113);"/>
                                </g>
                                <g transform="matrix(-1.54764,0,0,2.99856,4377.21,63.1184)">
                                    <circle cx="280" cy="570" r="10" style="fill:rgb(113,113,113);"/>
                                </g>
                                <g transform="matrix(-1.54764,0,0,2.99856,4377.21,337.733)">
                                    <circle cx="280" cy="570" r="10" style="fill:rgb(113,113,113);"/>
                                </g>
                                <g transform="matrix(-1.54764,0,0,2.99856,4253.36,-151.133)">
                                    <circle cx="280" cy="570" r="10" style="fill:rgb(113,113,113);"/>
                                </g>
                                <g transform="matrix(-1.54764,0,0,2.99856,4377.21,544.944)">
                                    <circle cx="280" cy="570" r="10" style="fill:rgb(113,113,113);"/>
                                </g>
                                <g transform="matrix(-1.54764,0,0,2.99856,4253.36,56.0779)">
                                    <circle cx="280" cy="570" r="10" style="fill:rgb(113,113,113);"/>
                                </g>
                                <g transform="matrix(-1.54764,0,0,2.99856,4377.21,752.155)">
                                    <circle cx="280" cy="570" r="10" style="fill:rgb(113,113,113);"/>
                                </g>
                                <g transform="matrix(-1.54764,0,0,2.99856,4253.36,263.289)">
                                    <circle cx="280" cy="570" r="10" style="fill:rgb(113,113,113);"/>
                                </g>
                                <g transform="matrix(-1.54764,0,0,2.99856,4377.21,959.367)">
                                    <circle cx="280" cy="570" r="10" style="fill:rgb(113,113,113);"/>
                                </g>
                                <g transform="matrix(-1.54764,0,0,2.99856,4253.36,470.5)">
                                    <circle cx="280" cy="570" r="10" style="fill:rgb(113,113,113);"/>
                                </g>
                                <g transform="matrix(-1.54764,0,0,2.99856,4253.36,755.769)">
                                    <circle cx="280" cy="570" r="10" style="fill:rgb(113,113,113);"/>
                                </g>
                                <g transform="matrix(-1.54764,0,0,2.99856,4150.71,717.361)">
                                    <circle cx="280" cy="570" r="10" style="fill:rgb(113,113,113);"/>
                                </g>
                                <g transform="matrix(-1.54764,0,0,2.99856,4150.71,433.309)">
                                    <circle cx="280" cy="570" r="10" style="fill:rgb(113,113,113);"/>
                                </g>
                                <g transform="matrix(-1.54764,0,0,2.99856,4040.33,638.759)">
                                    <circle cx="280" cy="570" r="10" style="fill:rgb(113,113,113);"/>
                                </g>
                                <g transform="matrix(-1.54764,0,0,2.99856,4040.33,324.45)">
                                    <circle cx="280" cy="570" r="10" style="fill:rgb(113,113,113);"/>
                                </g>
                                <g transform="matrix(-1.54764,0,0,2.99856,4253.36,949.282)">
                                    <circle cx="280" cy="570" r="10" style="fill:rgb(113,113,113);"/>
                                </g>
                                <g transform="matrix(-1.54764,0,0,2.99856,4501.85,29.2888)">
                                    <circle cx="280" cy="570" r="10" style="fill:rgb(113,113,113);"/>
                                </g>
                                <g transform="matrix(-1.54764,0,0,2.99856,4506.01,303.903)">
                                    <circle cx="280" cy="570" r="10" style="fill:rgb(113,113,113);"/>
                                </g>
                                <g transform="matrix(-1.54764,0,0,2.99856,4614.57,-79.5513)">
                                    <circle cx="280" cy="570" r="10" style="fill:rgb(113,113,113);"/>
                                </g>
                                <g transform="matrix(-1.54764,0,0,2.99856,4618.73,195.063)">
                                    <circle cx="280" cy="570" r="10" style="fill:rgb(113,113,113);"/>
                                </g>
                                <g transform="matrix(1.15207,0,0,1.03237,3317.63,1119.82)">
                                    <path d="M798.967,508.86C750.4,655.377 661.094,770 490,770" style="fill:none;stroke:rgb(113,113,113);stroke-width:34.93px;"/>
                                </g>
                                <g transform="matrix(1.15207,0,0,1.03237,3317.63,1524.07)">
                                    <path d="M488.967,770C317.873,770 220.3,644.206 178.967,508.86" style="fill:none;stroke:rgb(113,113,113);stroke-width:34.93px;"/>
                                </g>
                                <g transform="matrix(1.54764,0,0,2.99856,3107.13,958.559)">
                                    <path d="M500,71L500,614.167" style="fill:none;stroke:rgb(113,113,113);stroke-width:19.68px;"/>
                                </g>
                                <g transform="matrix(1.54764,0,0,2.99856,2500.53,1172.99)">
                                    <path d="M714.008,91.205L714,231.942" style="fill:none;stroke:rgb(241,241,241);stroke-width:29.52px;"/>
                                </g>
                                <g transform="matrix(1.15207,0,0,1.03237,3317.63,2005.25)">
                                    <path d="M798.967,508.86C750.4,655.377 661.094,770 490,770C318.906,770 220.3,644.206 178.967,508.86L178.967,-874.471L798.967,-874.471L798.967,508.86Z" style="fill:none;stroke:rgb(113,113,113);stroke-width:34.93px;"/>
                                </g>
                            </g>
                            <g transform="matrix(1.15207,0,0,1.03237,3317.63,617.65)">
                                <path d="M95.264,121.792C67.56,-27.267 249.566,-181.623 490,-181.623C739.52,-181.623 905.203,-29.451 880.882,121.792C853.09,294.61 798.967,508.86 798.967,508.86C750.4,655.377 661.094,770 490,770C318.906,770 220.3,644.206 178.967,508.86C178.967,508.86 124.038,276.61 95.264,121.792Z" style="fill:rgb(113,113,113);stroke:rgb(71,71,71);stroke-width:34.93px;"/>
                            </g>
                            <g transform="matrix(1.54764,0,0,2.99856,2494.79,460.894)">
                                <path d="M687.471,153.562L717.709,213.964" style="fill:none;stroke:rgb(155,155,155);stroke-width:29.52px;"/>
                            </g>
                            <g transform="matrix(6.9674,0,0,20.7927,-14765.1,-30270.9)">
                                <ellipse cx="2676" cy="1489.38" rx="57" ry="9.625" style="fill:rgb(71,71,71);"/>
                            </g>
                        </g>
                    </g>
                </g>
            </g>
        </g>
    </g>
</svg>
